<?xml version="1.0" encoding="UTF-8" standalone="no"?>
<svg
   xmlns:dc="http://purl.org/dc/elements/1.1/"
   xmlns:cc="http://creativecommons.org/ns#"
   xmlns:rdf="http://www.w3.org/1999/02/22-rdf-syntax-ns#"
   xmlns:svg="http://www.w3.org/2000/svg"
   xmlns="http://www.w3.org/2000/svg"
   xmlns:sodipodi="http://sodipodi.sourceforge.net/DTD/sodipodi-0.dtd"
   xmlns:inkscape="http://www.inkscape.org/namespaces/inkscape"
   inkscape:export-ydpi="96"
   inkscape:export-xdpi="96"
   inkscape:export-filename="C:\xampp\htdocs\hat-na-bey\lib\logo.png"
   sodipodi:docname="logo.svg"
   inkscape:version="1.0 (4035a4fb49, 2020-05-01)"
   id="svg8"
   version="1.1"
   viewBox="0 0 215.08308 215.08308"
   height="215.08308mm"
   width="215.08308mm">
  <defs
     id="defs2">
    <rect
       id="rect82"
       height="103.1875"
       width="179.91667"
       y="149.90242"
       x="179.64307" />
  </defs>
  <sodipodi:namedview
     lock-margins="true"
     inkscape:window-maximized="1"
     inkscape:window-y="-9"
     inkscape:window-x="-9"
     inkscape:window-height="1001"
     inkscape:window-width="1920"
     fit-margin-bottom="5"
     fit-margin-right="5"
     fit-margin-left="5"
     fit-margin-top="5"
     showgrid="false"
     inkscape:document-rotation="0"
     inkscape:current-layer="layer1"
     inkscape:document-units="mm"
     inkscape:cy="335.97585"
     inkscape:cx="183.31377"
     inkscape:zoom="0.5765548"
     inkscape:pageshadow="2"
     inkscape:pageopacity="0.0"
     borderopacity="1.0"
     bordercolor="#666666"
     pagecolor="#ffffff"
     id="base" />
  <metadata
     id="metadata5">
    <rdf:RDF>
      <cc:Work
         rdf:about="">
        <dc:format>image/svg+xml</dc:format>
        <dc:type
           rdf:resource="http://purl.org/dc/dcmitype/StillImage" />
        <dc:title />
      </cc:Work>
    </rdf:RDF>
  </metadata>
  <g
     transform="translate(-20.344225,-40.254938)"
     id="layer1"
     inkscape:groupmode="layer"
     inkscape:label="Layer 1">
    <path
       id="path147"
       d="m 85.76894,222.30457 c -1.345126,-1.43789 -1.464575,-1.59354 -5.067615,-6.60343 -1.201044,-1.67001 -2.421435,-3.25151 -2.711979,-3.51445 -0.290547,-0.26294 -0.528264,-0.61241 -0.528264,-0.77661 0,-0.16419 -1.081482,-2.02097 -2.403293,-4.12618 -3.325912,-5.29706 -5.142981,-9.08244 -5.793648,-12.06952 -0.290054,-1.33157 -0.641486,-2.72119 -0.780961,-3.08804 -0.139475,-0.36685 -1.247588,-1.66323 -2.462473,-2.88085 -1.965007,-1.96944 -2.421439,-2.62745 -4.134097,-5.95991 -2.555361,-4.97217 -3.065279,-5.63174 -5.381979,-6.9614 -5.28427,-3.03289 -8.419599,-5.61737 -8.838264,-7.28546 -0.246821,-0.98341 0.297362,-2.93473 1.118767,-4.01165 0.60189,-0.78912 0.632599,-0.94929 0.338141,-1.7636 -0.449276,-1.24245 0.02302,-2.27425 1.883622,-4.11506 0.814451,-0.80578 1.748972,-2.02304 2.076713,-2.70502 0.553955,-1.15268 1.698271,-2.35181 3.292841,-3.45056 0.36492,-0.25145 0.871997,-1.02536 1.126837,-1.7198 0.56855,-1.54928 0.880919,-1.82027 2.352636,-2.04097 1.424919,-0.21368 2.422661,0.17489 4.324384,1.68412 l 1.403602,1.11391 1.01753,-1.14212 c 0.559642,-0.62817 0.928216,-1.26119 0.819052,-1.40671 -0.109164,-0.14552 -0.773341,-0.97896 -1.47595,-1.85208 -0.702608,-0.87313 -1.970692,-2.64233 -2.817965,-3.93156 -1.460477,-2.22231 -1.540134,-2.42845 -1.533556,-3.96875 0.0089,-2.09301 0.624876,-3.45376 1.977436,-4.36861 0.602507,-0.40753 1.36621,-1.28128 1.773157,-2.02867 0.426055,-0.78248 0.907034,-1.32372 1.190625,-1.3398 0.261691,-0.0148 0.736764,-0.0446 1.055718,-0.0661 0.318953,-0.0215 1.264028,-0.63782 2.100165,-1.36951 0.836137,-0.73168 1.825331,-1.40529 2.198209,-1.49691 0.372878,-0.0916 1.184963,-0.61018 1.804633,-1.15235 1.137614,-0.99534 2.731404,-1.57665 4.322737,-1.57665 0.657281,0 1.168234,0.30149 2.258492,1.3326 1.405069,1.32886 1.411271,1.33145 2.204807,0.9211 1.232688,-0.63745 2.696533,-2.02842 2.546405,-2.41964 -0.07436,-0.19378 -0.809606,-1.24836 -1.633878,-2.34351 -0.834155,-1.10827 -1.498674,-2.26751 -1.498674,-2.61441 0,-0.3482 0.540017,-1.28623 1.223697,-2.12561 0.673034,-0.8263 1.223844,-1.58704 1.224021,-1.69051 1.77e-4,-0.10348 0.307576,-0.54533 0.683109,-0.98189 0.375531,-0.43657 1.655308,-2.20701 2.843948,-3.93432 1.188638,-1.7273 2.335837,-3.39418 2.549327,-3.70416 0.213492,-0.30999 1.708909,-2.40908 3.323159,-4.66465 1.61424,-2.25557 4.22717,-5.946501 5.806509,-8.202071 1.579337,-2.255577 3.904877,-5.529796 5.167867,-7.276046 1.263,-1.74625 4.2595,-5.972968 6.65891,-9.392708 17.85598,-25.449154 21.51615,-30.529846 23.00407,-31.932042 1.53271,-1.444402 3.2082,-2.023419 5.92215,-2.046588 3.18961,-0.02723 5.02081,0.57623 6.86603,2.262653 2.60164,2.377753 3.71106,6.572556 2.67806,10.125952 -0.50298,1.73017 -3.42366,6.13723 -23.51399,35.48065 -5.93324,8.66591 -16.58948,24.85918 -16.58948,25.20943 0,0.10044 1.45852,-1.26461 3.24115,-3.03345 3.03334,-3.00986 3.41936,-3.30028 6.02068,-4.52949 6.78777,-3.20744 7.91315,-3.43566 11.40012,-2.31187 1.22349,0.3943 3.04926,1.24274 4.05728,1.88541 2.02333,1.29001 2.57178,1.37444 5.0464,0.77692 0.87313,-0.21082 2.03579,-0.38756 2.5837,-0.39274 1.23976,-0.0117 3.50436,1.22661 4.44384,2.43 1.20539,1.54399 4.66799,7.49737 4.82464,8.29516 0.45753,2.33014 0.78495,3.51265 1.69201,6.11077 0.93988,2.69213 0.99972,3.05079 0.986,5.90881 -0.0116,2.40591 -0.14172,3.44726 -0.62193,4.9757 -0.53873,1.71473 -0.57056,2.06422 -0.28188,3.09527 0.23264,0.83092 0.276,2.39197 0.15208,5.47535 -0.0953,2.37218 -0.22349,4.49165 -0.28478,4.70993 -0.0613,0.21828 -0.16954,0.69453 -0.24056,1.05833 -0.46828,2.39898 -0.91717,3.35956 -2.79555,5.98221 -0.94947,1.32569 -2.0835,2.98662 -2.52007,3.69095 -0.43656,0.70434 -1.03187,1.66195 -1.32291,2.12803 -0.67226,1.07656 -2.59505,3.6263 -3.77046,4.99986 -0.49811,0.58208 -1.92768,2.42755 -3.17682,4.10104 -2.98369,3.99729 -6.9389,8.90037 -10.35155,12.83229 -3.44268,3.96653 -17.1261,17.65041 -21.19805,21.19879 -6.5582,5.71493 -16.777442,13.81773 -19.076515,15.12569 l -1.481728,0.84297 z m 8.623814,-25.72547 c 0.31908,-0.38447 0.30449,-0.81894 -0.15659,-4.66425 l -0.14661,-1.22266 -1.81096,-0.12957 c -3.114322,-0.22283 -4.123541,-1.06517 -8.145702,-6.79881 -3.724585,-5.30943 -5.312439,-8.81393 -6.163577,-13.60342 -0.558398,-3.1422 -1.215322,-5.46559 -1.54536,-5.46559 -0.421722,0 -0.872665,1.54366 -1.140992,3.90584 l -0.278794,2.45433 2.316948,4.73665 c 1.652119,3.3775 2.350717,5.10322 2.434627,6.01418 0.198872,2.15899 0.261972,2.28336 3.096683,6.10354 3.470598,4.67713 6.138868,7.50699 7.910955,8.39006 1.513312,0.75411 3.132102,0.87887 3.629372,0.2797 z m 44.586096,-23.85778 1.2937,-1.49848 -2.23542,0.17398 c -1.22948,0.0957 -3.28425,0.17469 -4.56614,0.17557 -1.48606,10e-4 -2.27146,0.0975 -2.1672,0.26616 0.0899,0.14552 0.62572,0.26459 1.19063,0.26459 0.5649,0 1.10068,0.11906 1.19062,0.26458 0.0899,0.14552 0.51368,0.26458 0.94166,0.26458 0.42797,0 0.77813,0.12853 0.77813,0.28561 0,0.16895 -0.29718,0.2287 -0.7276,0.14629 -0.40018,-0.0766 -1.35268,-0.21631 -2.11667,-0.31043 -0.76398,-0.0941 -1.38906,-0.27901 -1.38906,-0.41088 0,-0.13186 -0.17859,-0.23975 -0.39688,-0.23975 -0.21828,0 -0.39687,-0.11907 -0.39687,-0.26459 0,-0.14552 -0.19248,-0.26458 -0.42773,-0.26458 -0.31435,0 -0.38554,-0.1578 -0.26856,-0.59531 0.0876,-0.32742 0.23735,-1.85789 0.33288,-3.40103 l 0.1737,-2.80572 5.45267,-0.14682 c 2.99896,-0.0807 5.50962,-0.0908 5.57923,-0.0222 0.0696,0.0685 0.18868,1.15905 0.26458,2.42338 l 0.13802,2.29877 1.5875,-2.09466 c 0.87313,-1.15207 2.1033,-2.86672 2.73373,-3.81033 l 1.14623,-1.71566 -1.84394,0.17137 -1.84394,0.17138 -0.22833,-1.48667 -0.22833,-1.48667 -1.01435,-0.0605 -1.01435,-0.0605 0.0883,1.61423 0.0883,1.61423 -2.24895,0.17218 c -1.23693,0.0947 -3.6963,0.18399 -5.46528,0.19844 l -3.21632,0.0263 -0.1855,-1.34878 c -0.17898,-1.30131 -0.21222,-1.34486 -0.94441,-1.2374 -0.4174,0.0613 -0.80115,-0.0153 -0.85278,-0.17021 -0.1255,-0.37651 0.47007,-0.94778 0.9881,-0.94778 0.47754,0 0.56881,-0.69864 0.11119,-0.85118 -0.46725,-0.15575 -0.62548,-2.94337 -0.18658,-3.28722 0.19738,-0.15464 1.48996,-0.50333 2.87241,-0.77487 1.38245,-0.27154 2.7871,-0.63219 3.12144,-0.80144 0.55399,-0.28044 0.57083,-0.3448 0.18993,-0.7257 -0.36089,-0.36089 -1.09167,-0.56858 -2.7822,-0.79073 -0.21828,-0.0287 -0.39688,-0.22911 -0.39688,-0.4454 0,-0.60333 1.6706,-0.36209 2.8386,0.40991 1.12481,0.74346 2.2673,0.83011 3.37723,0.25614 0.53026,-0.2742 0.82006,-0.30778 0.94277,-0.10924 0.0974,0.15766 0.40185,0.22791 0.67647,0.15609 0.55418,-0.14492 0.65057,0.092 0.21477,0.52776 -0.203,0.203 0.21188,0.33771 1.4477,0.47005 0.95273,0.10203 1.84653,0.11487 1.98622,0.0285 0.37257,-0.23027 1.08395,0.91425 1.08395,1.74393 0,1.08961 -0.58122,1.50542 -1.90601,1.36358 -0.62518,-0.0669 -1.85107,0.006 -2.7242,0.1621 -0.87312,0.1561 -2.74223,0.40503 -4.15357,0.55319 -3.01103,0.3161 -4.48301,0.74776 -2.64206,0.7748 0.62804,0.009 1.34241,0.11505 1.5875,0.23516 0.2451,0.12011 1.75532,0.12923 3.35605,0.0203 1.60073,-0.10898 3.92245,-0.26455 5.15937,-0.34572 2.77128,-0.18186 6.01251,-0.64341 6.82851,-0.97238 1.56945,-0.6327 2.57617,-6.08423 2.34138,-12.67888 -0.17551,-4.92968 -0.80097,-10.37286 -1.51297,-13.16681 -0.50277,-1.97293 -1.9654,-5.3272 -2.68073,-6.14777 -0.88148,-1.01117 -3.64999,-2.64435 -4.48701,-2.64694 -0.19629,-5.3e-4 -0.94261,-0.29827 -1.6585,-0.66146 -0.71588,-0.36319 -1.54932,-0.66823 -1.85208,-0.67785 -0.30276,-0.01 -1.19427,-0.22777 -1.98114,-0.48476 -1.53457,-0.5012 -2.54025,-0.38768 -5.31621,0.60007 -0.65484,0.23301 -1.51635,0.42539 -1.91446,0.4275 -1.81403,0.01 -8.0128,1.18171 -10.59962,2.00416 -3.51091,1.11626 -4.96062,1.76393 -5.72425,2.55733 -0.85336,0.88664 -1.58777,3.3178 -1.71705,5.68409 -0.0619,1.13377 -0.19027,3.49015 -0.28517,5.2364 -0.138,2.53947 -0.063,3.88997 0.37498,6.74687 0.65273,4.25827 0.67133,4.86242 0.16264,5.28459 -0.28137,0.23352 -0.35033,0.66152 -0.25034,1.55375 0.32429,2.8937 0.31166,2.86678 1.7719,3.77733 3.7762,2.35471 6.52651,3.27631 10.70689,3.58779 l 2.18282,0.16264 v 2.37849 2.37849 l -1.78594,-0.17845 c -5.99042,-0.59856 -10.44015,-1.57824 -11.25426,-2.47782 -0.36491,-0.40323 -0.83611,-2.50828 -1.31696,-5.88347 -0.0518,-0.3638 -0.19449,0.17198 -0.31702,1.19062 -0.14152,1.17659 -0.11716,2.47933 0.0668,3.57188 0.24293,1.44278 0.43052,1.83837 1.16462,2.45599 1.46082,1.22903 7.17726,2.74256 12.9136,3.41912 0.56388,0.0665 0.68784,0.25366 0.84028,1.26864 0.0984,0.65484 0.18766,2.10463 0.19844,3.22174 0.0164,1.70191 0.0947,2.05074 0.48263,2.15212 0.25467,0.0666 -0.043,0.13482 -0.66145,0.1517 -0.61847,0.0169 -1.12448,0.14975 -1.12448,0.29527 0,0.36417 -0.99066,0.33533 -1.11324,-0.0324 -0.0544,-0.16334 -1.34429,-0.45785 -2.86632,-0.65447 -5.78225,-0.74695 -8.20813,-1.53748 -8.70169,-2.83565 -0.12795,-0.33653 -0.38554,-1.79499 -0.57242,-3.24103 -0.33444,-2.58775 -0.34345,-2.6104 -0.57239,-1.43852 -0.12793,0.65484 -0.24975,2.14312 -0.27071,3.30729 -0.0515,2.85992 0.37151,3.63325 2.53969,4.64323 1.95428,0.91033 5.94039,2.00735 8.05167,2.21589 l 1.52103,0.15024 -0.89694,-0.4117 c -0.66029,-0.30308 -0.81901,-0.48963 -0.60156,-0.70708 0.21744,-0.21744 0.42468,-0.17835 0.78548,0.14817 0.26956,0.24395 0.73588,0.44354 1.03628,0.44354 0.30039,0 0.61265,0.17326 0.69392,0.38503 0.165,0.42997 1.47745,0.5336 7.86205,0.62073 l 3.85214,0.0526 z m 0.13015,-21.40687 c 0,-0.57019 2.21427,-1.69149 2.59278,-1.31298 0.10148,0.10148 -0.0534,0.3585 -0.34424,0.57115 -0.29081,0.21265 -0.49898,0.44103 -0.4626,0.50753 0.19136,0.34978 0.0211,0.45928 -0.19147,0.12312 -0.19872,-0.31432 -0.3164,-0.32779 -0.57804,-0.0662 -0.33389,0.33389 -1.01643,0.45297 -1.01643,0.17733 z m 3.7147,-0.49757 c -0.28435,-0.34263 -0.13624,-1.68181 0.15392,-1.39165 0.13685,0.13685 0.36348,1.77582 0.24555,1.77582 -0.0443,0 -0.2241,-0.17288 -0.39947,-0.38417 z m -22.36292,-9.33784 c -0.1941,-1.28833 0.15705,-1.96561 1.41604,-2.73124 0.43959,-0.26734 1.00468,-0.79957 1.25574,-1.18274 0.38804,-0.59223 0.40011,-0.73234 0.0805,-0.93462 -0.20677,-0.13087 -0.61408,-0.23836 -0.90512,-0.23886 -0.7972,-0.001 -3.34731,0.72074 -3.66415,1.03757 -0.34225,0.34226 -1.40968,0.36605 -1.61368,0.036 -0.22324,-0.3612 0.99969,-1.69651 2.778,-3.03328 1.24907,-0.93894 1.87678,-1.22223 3.0265,-1.36588 1.88175,-0.23511 6.00685,0.25707 7.21959,0.86139 1.84048,0.91713 1.77358,2.04404 -0.10326,1.73947 -0.59788,-0.097 -1.00304,-0.007 -1.29838,0.28827 -0.38453,0.38453 -0.38594,0.4293 -0.0135,0.4293 0.22868,0 0.41578,0.11906 0.41578,0.26458 0,0.14552 0.23812,0.26458 0.52917,0.26458 0.29104,0 0.52916,0.12162 0.52916,0.27026 0,0.14864 0.30659,0.40995 0.6813,0.58068 0.37472,0.17073 0.85097,0.63851 1.05834,1.03952 0.48241,0.93289 0.47456,1.02189 -0.086,0.97492 -0.25466,-0.0214 -0.68762,-0.02 -0.96212,0.003 -0.44799,0.0376 -0.42853,0.11249 0.18996,0.73099 0.66556,0.66556 0.67356,0.7103 0.23452,1.31167 -0.59378,0.81332 -0.91001,0.92526 -1.33341,0.47201 -0.29116,-0.31169 -0.21654,-0.4168 0.46442,-0.65419 1.30763,-0.45584 0.93312,-0.69219 -0.64389,-0.40634 -1.51258,0.27416 -1.83255,0.54406 -0.92604,0.78111 0.75988,0.19872 0.65296,0.71709 -0.14791,0.71709 -0.38599,0 -0.60646,-0.11425 -0.51283,-0.26575 0.15952,-0.25811 -2.92155,-0.0951 -3.37603,0.17865 -0.11017,0.0663 -0.27556,-0.0755 -0.36755,-0.31519 -0.13334,-0.34748 -0.21146,-0.36429 -0.38537,-0.0829 -0.14232,0.23027 -0.76595,0.35292 -1.79436,0.35292 h -1.57623 l -0.1692,-1.12306 z m 3.54837,-0.001 c -0.0102,-0.10914 -0.10219,-0.40997 -0.20437,-0.6685 -0.16782,-0.42465 -0.23634,-0.43153 -0.70901,-0.0712 -0.45211,0.34468 -0.46928,0.43499 -0.12635,0.66446 0.46889,0.31375 1.06614,0.35696 1.03973,0.0752 z m -1.10429,-1.93415 c 0.67457,-0.42781 1.52733,-0.77783 1.89502,-0.77783 h 0.66853 l -0.60093,-0.4209 c -0.54894,-0.3845 -0.67419,-0.38459 -1.44793,-0.001 -1.09354,0.54202 -1.50802,0.90081 -2.23607,1.93565 -0.74277,1.05574 -0.76371,1.30056 -0.0502,0.58708 0.29981,-0.2998 1.09702,-0.89512 1.7716,-1.32292 z m 5.35622,1.36335 c 0,-0.25119 -0.58678,-0.81836 -0.84666,-0.81836 -0.24538,0 -0.28778,0.89403 -0.0535,1.1283 0.1914,0.1914 0.90017,-0.0526 0.90017,-0.30994 z m 1.05834,-0.0246 c 0,-0.14552 -0.12609,-0.26458 -0.2802,-0.26458 -0.15411,0 -0.20662,0.11906 -0.11668,0.26458 0.0899,0.14552 0.21603,0.26459 0.2802,0.26459 0.0642,0 0.11668,-0.11907 0.11668,-0.26459 z m -3.36841,-3.08396 c -0.17913,-0.0725 -0.53631,-0.0769 -0.79375,-0.01 -0.25743,0.0671 -0.11086,0.12638 0.3257,0.13177 0.43656,0.005 0.64719,-0.0495 0.46805,-0.12197 z m 1.97383,-1.83839 c -0.0879,-0.0879 -0.31612,-0.0973 -0.50712,-0.0209 -0.21106,0.0845 -0.14837,0.14716 0.15986,0.15986 0.27891,0.0115 0.43518,-0.0511 0.34726,-0.13897 z m 12.24249,5.98069 c -0.29521,-0.19078 -0.14271,-0.25752 0.59532,-0.26054 0.5457,-0.002 0.99218,0.11502 0.99218,0.26054 0,0.33699 -1.06603,0.33699 -1.5875,0 z m 2.64584,-1.05834 c 0,-0.14552 0.11203,-0.26458 0.24896,-0.26458 0.13694,0 0.32256,0.11906 0.41249,0.26458 0.0899,0.14552 -0.0221,0.26459 -0.24896,0.26459 -0.22687,0 -0.41249,-0.11907 -0.41249,-0.26459 z m 1.10786,-0.16667 c -0.13273,-0.23719 -0.52109,-0.44555 -0.86302,-0.46302 -0.4058,-0.0207 -0.76297,-0.30739 -1.02857,-0.82551 -0.55761,-1.08776 -0.5452,-1.07479 -0.75201,-0.78609 -0.29881,0.41711 -1.32748,0.91838 -1.88464,0.91838 -0.28443,0 -0.59073,0.11906 -0.68067,0.26458 -0.0899,0.14552 -0.27555,0.26458 -0.41249,0.26458 -0.49306,0 -0.22947,-0.40698 0.59977,-0.92604 0.98376,-0.61578 1.40977,-0.89263 2.35184,-1.52841 0.82116,-0.55417 2.80957,-0.64543 4.43661,-0.20362 1.13214,0.30742 2.41698,1.29663 2.41698,1.86084 0,0.2776 -3.11897,1.85557 -3.66766,1.85557 -0.15114,0 -0.3834,-0.19407 -0.51614,-0.43126 z m 1.14109,-0.36249 c 0.0899,-0.14552 -0.0816,-0.26459 -0.38125,-0.26459 -0.29963,0 -0.54479,0.11907 -0.54479,0.26459 0,0.14552 0.17157,0.26458 0.38126,0.26458 0.2097,0 0.45485,-0.11906 0.54478,-0.26458 z m -5.15937,-0.26459 c 0,-0.31054 0.20336,-0.31054 0.92604,0 0.46891,0.2015 0.44631,0.22951 -0.19844,0.24599 -0.40018,0.0102 -0.7276,-0.10047 -0.7276,-0.24599 z m -2.64583,-2.6706 c 0,-0.15914 0.20836,-0.34509 0.46302,-0.41322 0.25466,-0.0681 0.81328,-0.59276 1.24138,-1.16586 0.64041,-0.85731 0.9452,-1.04621 1.71979,-1.06585 l 0.94143,-0.0239 -0.90789,-0.26072 c -0.60434,-0.17356 -1.26531,-0.17 -1.97693,0.0106 -0.75232,0.19096 -1.12129,0.18685 -1.24535,-0.0139 -0.097,-0.15688 -0.30044,-0.20852 -0.45217,-0.11474 -0.60977,0.37685 -0.52594,-0.33991 0.0867,-0.74133 0.36255,-0.23756 0.65918,-0.59503 0.65918,-0.79439 0,-0.38249 0.55401,-0.68367 1.25758,-0.68367 0.2313,0 0.60852,-0.164 0.83826,-0.36445 0.22974,-0.20046 1.40852,-0.54359 2.61952,-0.76253 l 2.20182,-0.39806 2.12627,0.88337 c 1.91395,0.79515 2.83041,1.44983 2.85439,2.03904 0.018,0.4417 -0.82078,0.49236 -1.43953,0.0869 -0.86478,-0.56663 -2.47808,-0.53863 -4.03237,0.07 -0.69661,0.27277 -1.68328,0.45678 -2.1926,0.4089 -0.73361,-0.069 -0.67862,-0.0311 0.26458,0.1821 2.42746,0.54874 3.18101,0.86535 4.1314,1.73588 0.53543,0.49044 0.896,0.96921 0.80126,1.06395 -0.0947,0.0947 -0.43967,-0.0783 -0.76652,-0.38444 -1.32171,-1.23811 -3.269,-1.44003 -5.6941,-0.59042 -0.83311,0.29187 -1.83735,0.76812 -2.23164,1.05834 -0.79787,0.58726 -1.26748,0.67555 -1.26748,0.2383 z m -29.29762,34.69216 c 1.30157,-0.39051 2.48745,-1.60501 3.63303,-3.72069 0.91354,-1.68717 0.92571,-1.75185 0.90198,-4.79409 l -0.0241,-3.08384 -2.39722,-4.05991 c -3.5409,-5.99682 -3.72624,-6.59291 -3.11851,-10.02976 0.66781,-3.77661 0.51661,-4.91014 -0.99035,-7.42467 -0.69783,-1.16441 -0.73497,-1.39512 -0.76658,-4.7625 -0.0273,-2.9073 0.093,-4.14091 0.674,-6.91288 0.38898,-1.85574 0.82029,-3.67145 0.95848,-4.0349 0.37918,-0.99732 0.12959,-0.79657 -0.63794,0.51312 -0.37838,0.64566 -3.20112,4.40772 -6.272737,8.36012 l -5.584779,7.18618 -1.10456,-1.08404 -1.10456,-1.08404 -1.185179,1.25673 c -0.651848,0.69121 -1.524725,1.63523 -1.939726,2.09782 l -0.754544,0.84108 1.06848,2.49102 c 1.271479,2.96428 1.731092,4.55721 1.53748,5.32861 -0.07829,0.31195 -0.6825,1.26279 -1.342681,2.11297 -0.786915,1.01339 -1.200327,1.80763 -1.200327,2.30604 0,0.41814 0.536863,1.95478 1.19303,3.41476 1.118055,2.48768 7.204827,14.80687 7.440367,15.05876 0.52857,0.56528 9.150336,0.58414 11.016906,0.0241 z"
       style="fill:#9100ba;stroke-width:0.264583;fill-opacity:1" />
    <path
       id="path163"
       d="m 63.723982,250.21208 c -0.582084,-0.052 -2.356109,-0.33661 -3.942279,-0.63256 -8.310478,-1.55054 -16.930455,-5.8845 -22.827141,-11.47706 -2.236023,-2.1207 -2.315113,-2.23451 -1.870436,-2.69154 0.446739,-0.45914 0.606938,-0.42995 4.233333,0.77135 15.103321,5.00322 27.718459,4.33805 41.354169,-2.18054 4.10366,-1.96177 9.14492,-4.77364 10.17214,-5.67374 0.36381,-0.31878 1.0061,-0.75208 1.42732,-0.96288 2.27925,-1.14068 13.894842,-10.39819 21.058852,-16.7837 3.50599,-3.125 15.81003,-15.26469 17.83875,-17.60047 3.58751,-4.13051 7.51275,-8.76171 9.33468,-11.01354 5.95368,-7.3585 20.84353,-28.20748 23.78506,-33.30417 0.41993,-0.7276 1.30097,-2.05098 1.95787,-2.94084 0.6569,-0.88986 1.62741,-2.31861 2.15669,-3.175 2.50875,-4.0592 4.35553,-6.99761 5.3853,-8.56853 2.08125,-3.17498 9.01335,-14.88362 13.1583,-22.22501 4.85148,-8.59278 12.28803,-22.213546 12.80998,-23.462768 0.20198,-0.483386 0.45493,-0.879475 0.56211,-0.880195 0.5997,-0.004 2.70843,0.949524 2.70843,1.224725 0,0.35089 -6.1655,15.320828 -8.54071,20.736988 -8.27108,18.86047 -19.06952,40.31165 -27.43718,54.50417 -4.2216,7.16032 -9.25914,15.41419 -10.01056,16.40203 -0.38653,0.50815 -1.29983,1.89355 -2.02956,3.07868 -1.56674,2.54449 -6.3029,9.28388 -10.94657,15.57659 -1.82556,2.47385 -3.81269,5.2241 -4.41585,6.11167 -1.55239,2.28442 -9.82746,12.16714 -12.81957,15.3101 -7.71216,8.101 -14.4518,13.84773 -21.16668,18.04831 -10.792882,6.75165 -21.807972,10.85112 -31.504272,11.72491 -2.64177,0.23806 -8.20012,0.2823 -10.432176,0.083 z M 206.73128,83.419245 c -3.44232,-0.667308 -7.47633,-3.744703 -9.195,-7.014516 -2.27932,-4.336465 -2.11779,-9.863718 0.39823,-13.626488 1.49928,-2.242215 2.45698,-3.222444 4.19876,-4.297537 2.29705,-1.417819 4.13764,-2.036841 6.56135,-2.206694 2.88083,-0.201887 4.7482,0.231858 7.80644,1.813244 2.41507,1.248806 2.59722,1.40498 3.9014,3.345058 1.75627,2.612584 2.11783,3.363803 2.59679,5.395412 1.09333,4.637477 -0.27213,9.363016 -3.69432,12.785206 -3.30183,3.301829 -7.93731,4.705089 -12.57365,3.806315 z m 6.83076,-5.7539 c 1.82815,-0.69464 3.62042,-2.116223 4.2601,-3.379004 0.30295,-0.598022 0.55081,-1.209214 0.55081,-1.358204 0,-0.148989 0.2537,-0.337235 0.56378,-0.418323 0.51069,-0.133547 0.52492,-0.18629 0.15119,-0.560025 -0.60208,-0.602078 -0.94593,-0.507832 -1.14932,0.315011 -0.23024,0.931473 -1.70299,2.872453 -2.78551,3.671117 -2.16581,1.597882 -5.46907,1.854222 -7.9353,0.615796 -1.08143,-0.54305 -3.66151,-2.966941 -3.66151,-3.439866 0,-0.119507 -0.11757,-0.526521 -0.26127,-0.904476 -0.25532,-0.671552 -0.27961,-0.677709 -1.06698,-0.27054 -0.83031,0.429367 -0.84184,1.059872 -0.0146,0.797312 0.35101,-0.111408 0.58548,0.120317 0.95831,0.947113 0.60963,1.351919 2.28491,3.105458 3.69182,3.864275 1.4206,0.766204 4.83651,0.827304 6.69847,0.119814 z m -5.52868,-7.980232 c 0.11027,0 0.32942,-0.282996 0.48702,-0.62888 0.63439,-1.392346 -0.68968,-3.869037 -2.06844,-3.869037 -0.61337,0 -1.57274,0.892859 -1.57274,1.463707 0,1.328473 1.75988,3.492318 2.58335,3.176325 0.20369,-0.07816 0.46056,-0.142115 0.57081,-0.142115 z M 214.876,69.53676 c 0.80821,-0.56609 1.38028,-1.757424 1.38028,-2.874422 0,-0.764894 -0.14023,-1.004901 -0.78061,-1.336056 -1.05825,-0.547241 -1.40811,-0.510428 -2.09469,0.220413 -1.27416,1.356276 -1.25931,3.611909 0.0272,4.128749 0.81438,0.327173 0.80092,0.328444 1.46784,-0.138684 z"
       style="fill:#e30007;stroke-width:0.264583;fill-opacity:1" />
  </g>
</svg>
